# xmcd CD database file
#
# Track frame offsets:
#	150
#	23148
#	47294
#	67032
#	89618
#	109920
#	130432
#	149218
#	170087
#	183729
#	206536
#	227127
#
# Disc length: 3238 seconds
#
# Revision: 0
# Processed by: cddbd v1.4PL0 Copyright (c) Steve Scherf et al.
# Submitted via: NeoAudio 9.9.9
#
DISCID=ba0ca40c
DTITLE=Various Artist - Salsa Latina
DYEAR=1998
DGENRE=Salsa
TTITLE0=Sonora Carruseles - Mosaíco Boogaloo
TTITLE1=John Dennis - Baila
TTITLE2=Fuentes Salsa Stars - El Todo Poderoso
TTITLE3=Luis Alberto - Me Encanta como Bailas
TTITLE4=Sonora Carruseles - El Pito
TTITLE5=Galileo - No Morirá
TTITLE6=Nemus del Pacífico - Hay que Darle Gusto
TTITLE7=Titanes - Perdóname
TTITLE8=Luis Felipe y Sus Estrellas - El Forastero
TTITLE9=Sabrosura - Nostalgía
TTITLE10=Nana Hoyos - Tuya más que Tuya
TTITLE11=Fuentes Salsa Stars - De que Tamaño
EXTD=YEAR: 1998
EXTT0=
EXTT1=
EXTT2=
EXTT3=
EXTT4=
EXTT5=
EXTT6=
EXTT7=
EXTT8=
EXTT9=
EXTT10=
EXTT11=
PLAYORDER=
